<svg xmlns="http://www.w3.org/2000/svg" width="246" height="180" viewBox="0.0 0.0 246.0 180.0"><g id="others"><path id="46" d="M 10.103,106.442 C 9.453,105.751 9.702,105.051 11.143,103.518 C 11.807,102.811 13.028,101.449 13.855,100.491 C 14.683,99.534 15.780,98.296 16.292,97.742 C 16.804,97.187 17.564,96.332 17.980,95.842 C 18.395,95.351 19.320,94.305 20.034,93.517 C 20.749,92.728 21.335,92.006 21.337,91.912 C 21.338,91.818 21.548,91.552 21.802,91.321 C 22.056,91.090 22.615,90.491 23.044,89.992 C 25.530,87.097 27.789,84.571 28.059,84.383 C 28.796,83.871 29.356,82.362 28.911,82.089 C 28.823,82.035 26.574,81.955 23.912,81.911 C 21.250,81.868 18.607,81.793 18.040,81.746 C 17.473,81.700 15.922,81.622 14.595,81.574 C 13.268,81.526 11.755,81.413 11.232,81.322 C 10.709,81.232 9.978,81.206 9.608,81.265 C 8.753,81.400 7.517,80.957 7.222,80.410 C 7.051,80.093 7.051,79.918 7.223,79.505 C 7.453,78.955 8.290,78.167 8.644,78.167 C 8.763,78.167 9.057,78.013 9.299,77.825 C 9.540,77.637 10.093,77.362 10.529,77.215 C 10.965,77.068 11.583,76.772 11.902,76.557 C 12.221,76.342 12.574,76.167 12.687,76.167 C 12.801,76.167 13.088,76.015 13.325,75.830 C 13.562,75.644 14.079,75.380 14.474,75.242 C 14.868,75.104 15.313,74.881 15.463,74.746 C 15.613,74.612 16.070,74.401 16.479,74.277 C 16.889,74.154 17.518,73.853 17.877,73.610 C 18.236,73.366 18.628,73.167 18.746,73.167 C 18.865,73.167 19.176,72.989 19.437,72.772 C 19.698,72.554 20.154,72.324 20.450,72.260 C 20.746,72.196 21.176,71.997 21.405,71.818 C 21.635,71.639 22.145,71.380 22.539,71.242 C 22.933,71.104 23.373,70.890 23.516,70.767 C 23.659,70.644 24.173,70.415 24.657,70.259 C 25.141,70.102 25.581,69.904 25.634,69.818 C 25.688,69.732 26.020,69.516 26.372,69.338 C 27.048,68.996 27.305,68.612 27.096,68.258 C 26.954,68.019 24.581,66.021 23.524,65.250 C 22.485,64.493 20.367,62.770 19.271,61.790 C 18.733,61.310 18.133,60.858 17.939,60.786 C 17.744,60.714 17.095,60.227 16.498,59.703 C 15.418,58.755 13.279,56.974 12.387,56.280 C 10.565,54.863 7.437,52.059 7.245,51.671 C 6.940,51.054 7.122,50.373 7.656,50.132 C 8.194,49.889 10.522,50.177 12.743,50.762 C 13.606,50.989 14.778,51.217 15.348,51.270 C 15.917,51.322 16.837,51.514 17.391,51.697 C 17.946,51.881 19.289,52.134 20.376,52.261 C 21.463,52.387 22.520,52.579 22.724,52.688 C 23.150,52.914 25.361,53.325 26.176,53.330 C 26.480,53.332 27.176,53.483 27.723,53.666 C 28.270,53.849 29.497,54.107 30.448,54.240 C 31.400,54.374 32.481,54.589 32.850,54.719 C 33.220,54.849 34.090,55.044 34.783,55.151 C 37.549,55.579 38.253,55.749 38.858,56.139 C 39.715,56.691 39.721,57.284 38.877,57.922 C 38.317,58.346 38.220,58.367 37.704,58.182 C 37.394,58.071 36.459,57.910 35.625,57.825 C 34.792,57.739 33.260,57.485 32.220,57.260 C 31.181,57.035 29.800,56.773 29.152,56.680 C 28.504,56.586 27.521,56.355 26.968,56.167 C 26.414,55.978 25.280,55.755 24.447,55.670 C 23.614,55.585 22.631,55.391 22.262,55.238 C 21.894,55.085 20.740,54.862 19.698,54.742 C 18.352,54.586 17.638,54.421 17.227,54.169 C 16.596,53.782 15.074,53.648 14.768,53.952 C 14.477,54.240 14.673,54.893 15.115,55.111 C 15.342,55.223 15.644,55.457 15.787,55.630 C 15.930,55.804 16.311,56.126 16.633,56.346 C 16.955,56.566 17.347,56.859 17.504,56.998 C 17.661,57.136 18.099,57.475 18.479,57.750 C 19.310,58.352 22.961,61.338 23.458,61.822 C 23.653,62.012 23.867,62.167 23.934,62.167 C 24,62.167 24.609,62.635 25.285,63.208 C 27.544,65.122 29.955,67.081 30.258,67.250 C 30.662,67.475 31.422,68.608 31.422,68.986 C 31.422,69.424 30.059,70.608 29.388,70.753 C 29.074,70.821 28.608,71.051 28.351,71.265 C 28.094,71.479 27.605,71.705 27.264,71.769 C 26.923,71.832 26.346,72.098 25.983,72.359 C 25.620,72.620 25.194,72.833 25.038,72.833 C 24.881,72.833 24.615,72.984 24.447,73.168 C 24.279,73.352 23.833,73.590 23.455,73.696 C 23.077,73.803 22.615,74.025 22.428,74.189 C 22.240,74.354 21.752,74.606 21.344,74.749 C 20.935,74.892 20.484,75.110 20.340,75.234 C 20.197,75.358 19.777,75.560 19.408,75.683 C 19.038,75.807 18.529,76.072 18.278,76.273 C 18.026,76.474 17.574,76.692 17.273,76.757 C 16.702,76.882 15.312,77.840 15.062,78.281 C 14.964,78.454 15.020,78.638 15.235,78.852 C 15.526,79.140 15.930,79.175 19.917,79.256 C 22.317,79.305 25.112,79.426 26.129,79.524 C 27.146,79.622 28.469,79.724 29.070,79.750 C 31.112,79.841 32.701,80.086 33.155,80.381 C 33.768,80.779 33.749,81.443 33.102,82.250 C 32.825,82.596 32.598,82.930 32.598,82.993 C 32.598,83.056 32.164,83.563 31.632,84.120 C 31.101,84.677 30.477,85.372 30.246,85.663 C 30.015,85.955 29.635,86.393 29.402,86.638 C 28.374,87.718 24.779,91.877 24.721,92.054 C 24.686,92.162 24.460,92.448 24.217,92.690 C 23.617,93.290 23.155,93.804 21.472,95.750 C 20.678,96.667 19.533,97.899 18.927,98.489 C 17.792,99.593 17.442,100.308 17.817,100.757 C 18.118,101.117 18.624,101.053 19.186,100.583 C 19.461,100.354 19.801,100.167 19.942,100.167 C 20.084,100.167 20.421,99.982 20.691,99.756 C 20.961,99.531 21.444,99.275 21.763,99.187 C 22.082,99.100 22.541,98.874 22.783,98.685 C 23.025,98.496 23.498,98.293 23.836,98.233 C 24.173,98.174 24.573,98.017 24.724,97.887 C 24.875,97.756 25.400,97.498 25.891,97.313 C 26.381,97.128 26.975,96.843 27.212,96.678 C 27.448,96.514 27.919,96.290 28.258,96.181 C 28.597,96.072 28.962,95.878 29.069,95.751 C 29.176,95.623 29.630,95.397 30.078,95.250 C 30.526,95.102 30.979,94.877 31.086,94.750 C 31.193,94.623 31.646,94.397 32.094,94.250 C 32.542,94.102 32.996,93.877 33.102,93.750 C 33.209,93.623 33.660,93.398 34.104,93.252 C 34.548,93.106 35.038,92.848 35.192,92.679 C 35.346,92.510 35.713,92.324 36.007,92.265 C 36.301,92.207 36.845,91.960 37.217,91.715 C 38.154,91.099 39.403,91.001 40.034,91.496 C 40.688,92.008 40.627,92.510 39.823,93.231 C 39.453,93.562 39.032,93.833 38.888,93.833 C 38.743,93.833 38.384,94.015 38.090,94.237 C 37.796,94.459 37.334,94.695 37.062,94.763 C 36.791,94.830 36.310,95.060 35.992,95.273 C 35.675,95.487 35.162,95.731 34.852,95.816 C 34.542,95.901 34.078,96.114 33.821,96.288 C 33.565,96.463 33.042,96.695 32.660,96.804 C 32.279,96.912 31.876,97.110 31.765,97.242 C 31.655,97.374 31.198,97.602 30.750,97.750 C 30.302,97.897 29.848,98.123 29.741,98.251 C 29.633,98.380 29.146,98.600 28.657,98.740 C 28.169,98.881 27.678,99.106 27.566,99.239 C 27.455,99.373 26.997,99.602 26.549,99.750 C 26.101,99.897 25.652,100.117 25.552,100.237 C 25.451,100.358 25.010,100.589 24.572,100.751 C 24.135,100.913 23.651,101.153 23.499,101.284 C 23.346,101.416 22.888,101.622 22.483,101.743 C 22.077,101.864 21.455,102.159 21.099,102.398 C 20.744,102.638 20.331,102.835 20.182,102.836 C 20.034,102.838 19.579,103.063 19.173,103.336 C 18.766,103.610 18.267,103.833 18.064,103.833 C 17.862,103.833 17.558,103.984 17.390,104.168 C 17.222,104.352 16.776,104.593 16.398,104.703 C 16.020,104.813 15.375,105.113 14.964,105.368 C 14.553,105.624 14.075,105.833 13.903,105.833 C 13.730,105.833 13.321,106.035 12.995,106.282 C 12.556,106.614 12.155,106.748 11.452,106.798 C 10.606,106.858 10.459,106.819 10.103,106.442" stroke="#262627" fill="#262627" stroke-width="1" />
  <path id="46" d="M 235.162,97.663 C 234.792,97.590 234.149,97.409 233.734,97.261 C 233.318,97.113 232.381,96.921 231.652,96.834 C 230.899,96.744 230.027,96.520 229.635,96.316 C 229.202,96.090 228.413,95.901 227.516,95.810 C 226.153,95.671 225.313,95.486 224.576,95.163 C 223.965,94.895 222.905,94.669 222.262,94.668 C 221.914,94.667 221.085,94.478 220.421,94.248 C 219.756,94.017 218.680,93.782 218.029,93.725 C 217.379,93.667 216.458,93.478 215.983,93.305 C 215.508,93.132 214.462,92.885 213.659,92.755 C 212.856,92.626 212.020,92.405 211.802,92.263 C 211.584,92.121 210.719,91.928 209.880,91.834 C 209.040,91.740 208.034,91.545 207.643,91.401 C 207.252,91.257 206.549,91.043 206.081,90.925 C 204.934,90.637 204.510,90.390 204.324,89.906 C 204.130,89.401 204.358,88.752 204.813,88.510 C 205.354,88.223 206.400,88.306 207.543,88.729 C 208.131,88.947 209.066,89.179 209.619,89.246 C 210.173,89.313 210.929,89.522 211.300,89.711 C 211.759,89.945 212.490,90.095 213.594,90.182 C 214.589,90.260 215.528,90.440 216.030,90.650 C 216.479,90.838 217.300,91.065 217.855,91.154 C 219.132,91.361 222.526,92.131 223.083,92.341 C 223.315,92.428 223.784,92.502 224.125,92.504 C 224.465,92.506 225.075,92.656 225.480,92.838 C 225.884,93.021 226.527,93.210 226.908,93.260 C 227.289,93.310 227.923,93.515 228.317,93.715 C 229.027,94.075 229.498,94.021 229.653,93.559 C 229.742,93.292 228.565,91.868 228.148,91.739 C 227.939,91.674 227.536,91.425 227.251,91.186 C 226.967,90.946 226.443,90.525 226.086,90.250 C 225.730,89.975 225.017,89.364 224.503,88.892 C 223.989,88.420 223.152,87.731 222.643,87.360 C 221.660,86.644 221.581,86.580 219.115,84.497 C 218.237,83.755 217.292,83.030 217.014,82.885 C 216.544,82.640 214.302,80.776 213.738,80.161 C 213.599,80.010 213.243,79.722 212.945,79.520 C 212.375,79.132 212.018,78.270 212.177,77.666 C 212.291,77.232 213.616,76.600 215.151,76.248 C 215.788,76.101 216.581,75.844 216.914,75.677 C 217.246,75.510 217.934,75.318 218.443,75.251 C 218.951,75.184 219.669,74.982 220.039,74.803 C 220.409,74.624 221.260,74.371 221.931,74.241 C 222.603,74.111 223.321,73.900 223.528,73.771 C 223.734,73.643 224.320,73.443 224.828,73.327 C 225.336,73.212 226.242,72.935 226.841,72.712 C 227.439,72.490 228.460,72.267 229.109,72.218 C 230.486,72.112 231.045,71.832 231.045,71.246 C 231.045,70.296 230.132,69.926 227.395,69.766 C 226.313,69.703 225.345,69.542 224.779,69.332 C 224.285,69.149 223.016,68.891 221.960,68.760 C 220.903,68.629 219.771,68.410 219.444,68.273 C 219.116,68.136 218.360,67.974 217.763,67.912 C 216.134,67.744 213.970,67.365 213.091,67.094 C 212.661,66.962 211.742,66.771 211.049,66.670 C 209.725,66.478 209.539,66.375 209.145,65.614 C 208.938,65.216 208.935,65.018 209.121,64.319 C 209.242,63.864 209.555,63.236 209.817,62.922 C 210.079,62.608 210.506,62.066 210.766,61.717 C 211.027,61.369 211.872,60.245 212.645,59.220 C 213.418,58.195 214.142,57.182 214.255,56.970 C 214.490,56.529 214.899,55.979 215.783,54.917 C 216.123,54.509 216.447,54.030 217.098,53.094 C 217.098,52.957 217.315,52.599 217.579,52.297 C 217.844,51.996 218.176,51.525 218.318,51.250 C 218.460,50.974 218.735,50.606 218.930,50.432 C 219.124,50.258 219.283,50.033 219.284,49.933 C 219.285,49.832 219.743,49.269 220.301,48.681 C 221.086,47.854 221.305,47.515 221.266,47.181 C 221.193,46.559 220.202,46.484 219.516,47.050 C 218.901,47.558 218.374,47.833 218.017,47.833 C 217.864,47.833 217.515,47.991 217.242,48.184 C 216.969,48.377 216.364,48.635 215.897,48.757 C 215.430,48.879 214.918,49.095 214.759,49.238 C 214.600,49.381 214.120,49.602 213.692,49.730 C 213.265,49.858 212.720,50.114 212.481,50.301 C 212.243,50.487 211.728,50.691 211.338,50.756 C 210.948,50.820 210.331,51.088 209.966,51.353 C 209.601,51.617 209.185,51.834 209.042,51.834 C 208.898,51.835 208.478,52.020 208.109,52.246 C 207.739,52.471 207.319,52.659 207.175,52.661 C 207.031,52.664 206.388,52.929 205.747,53.249 C 205.105,53.570 204.496,53.832 204.393,53.833 C 204.291,53.833 203.940,54.013 203.613,54.233 C 203.287,54.452 202.788,54.683 202.505,54.744 C 202.223,54.806 201.817,54.992 201.605,55.157 C 201.261,55.425 199.173,56.333 198.901,56.333 C 198.627,56.333 197.607,55.262 197.607,54.974 C 197.607,54.490 198.628,53.539 199.461,53.248 C 199.865,53.107 200.312,52.895 200.455,52.778 C 200.821,52.478 201.596,52.167 201.976,52.167 C 202.152,52.167 202.567,51.984 202.898,51.762 C 203.228,51.540 203.742,51.306 204.039,51.244 C 204.337,51.181 204.821,50.951 205.115,50.732 C 205.409,50.513 205.761,50.333 205.896,50.333 C 206.031,50.333 206.574,50.108 207.102,49.832 C 207.631,49.557 208.359,49.284 208.721,49.227 C 209.083,49.169 209.651,48.907 209.985,48.645 C 210.318,48.382 210.717,48.167 210.872,48.167 C 211.026,48.167 211.407,47.980 211.719,47.752 C 212.030,47.524 212.555,47.287 212.885,47.226 C 213.215,47.165 213.750,46.945 214.074,46.736 C 214.397,46.528 214.975,46.277 215.357,46.178 C 215.738,46.079 216.142,45.889 216.253,45.756 C 216.364,45.624 216.879,45.393 217.398,45.243 C 217.918,45.094 218.524,44.829 218.746,44.657 C 218.967,44.483 219.425,44.293 219.762,44.234 C 220.099,44.175 220.709,43.910 221.118,43.646 C 221.527,43.383 221.982,43.167 222.129,43.167 C 222.277,43.167 222.661,42.991 222.983,42.776 C 223.304,42.561 223.794,42.331 224.072,42.265 C 224.349,42.200 224.857,41.954 225.201,41.720 C 225.998,41.178 226.518,41.290 227.005,42.108 C 227.005,42.108 227.368,42.718 227.368,42.718 C 227.368,42.718 227,43.567 227,43.567 C 226.797,44.034 226.188,44.927 225.646,45.551 C 225.104,46.175 224.660,46.794 224.660,46.926 C 224.660,47.058 224.490,47.335 224.282,47.540 C 223.750,48.065 223.229,48.791 222.747,49.677 C 222.520,50.095 222.214,50.536 221.467,51.583 C 221.283,51.749 220.810,52.329 220.417,52.871 C 220.024,53.414 219.495,54.125 219.241,54.452 C 218.987,54.779 218.779,55.103 218.779,55.174 C 218.779,55.291 218.331,55.883 217.191,57.273 C 216.955,57.560 216.762,57.875 216.762,57.972 C 216.762,58.069 216.364,58.621 215.877,59.199 C 214.988,60.254 214.181,61.369 213.769,62.109 C 213.648,62.327 213.364,62.626 213.139,62.772 C 212.822,62.978 212.730,63.184 212.730,63.680 C 212.730,64.378 213.040,64.667 213.790,64.667 C 214.016,64.667 214.462,64.775 214.781,64.907 C 215.100,65.040 215.960,65.196 216.692,65.255 C 217.424,65.314 218.590,65.545 219.283,65.768 C 220.015,66.003 221.261,66.231 222.256,66.311 C 223.384,66.402 224.117,66.545 224.403,66.731 C 224.686,66.915 225.446,67.067 226.586,67.166 C 227.548,67.250 228.812,67.468 229.396,67.650 C 230.604,68.028 232.234,68.333 233.044,68.333 C 233.346,68.333 234.196,68.486 234.932,68.672 C 235.668,68.858 236.799,69.077 237.445,69.157 C 238.741,69.319 239.362,69.632 239.656,70.274 C 239.975,70.968 239.552,71.483 238.270,71.961 C 236.928,72.462 235.615,72.833 235.187,72.833 C 235.010,72.833 234.616,72.986 234.312,73.173 C 234.008,73.359 233.232,73.611 232.589,73.733 C 231.946,73.855 231.243,74.077 231.027,74.227 C 230.811,74.377 230.405,74.502 230.125,74.504 C 229.846,74.507 229.087,74.697 228.441,74.928 C 227.794,75.158 226.697,75.482 226.004,75.647 C 225.311,75.812 224.493,76.076 224.186,76.233 C 223.879,76.391 223.055,76.629 222.354,76.762 C 221.653,76.895 220.830,77.157 220.524,77.345 C 220.194,77.548 219.493,77.736 218.793,77.810 C 217.446,77.953 216.930,78.292 216.930,79.033 C 216.930,79.516 217.568,80.333 217.943,80.333 C 218.047,80.333 218.674,80.782 219.337,81.330 C 223.077,84.421 224.306,85.420 226.064,86.795 C 226.447,87.094 227.039,87.563 227.379,87.837 C 227.720,88.110 228.049,88.333 228.112,88.333 C 228.175,88.333 229.495,89.421 231.045,90.750 C 232.596,92.079 233.939,93.167 234.030,93.167 C 234.122,93.167 234.300,93.291 234.427,93.442 C 234.554,93.594 235.036,93.998 235.498,94.341 C 237.713,95.985 238.034,96.606 237.081,97.402 C 236.543,97.851 236.284,97.886 235.162,97.663" stroke="#262627" fill="#262627" stroke-width="1" />
  <path id="46" d="M 149.217,138.504 C 148.756,138.046 148.619,137.369 148.866,136.762 C 148.981,136.481 149.143,135.971 149.227,135.631 C 149.311,135.291 149.532,134.723 149.718,134.369 C 149.904,134.015 150.172,133.284 150.314,132.743 C 150.456,132.202 150.672,131.645 150.794,131.505 C 150.916,131.365 151.064,131.049 151.123,130.803 C 151.182,130.558 151.485,130.089 151.796,129.762 C 151.796,129.762 152.361,129.167 152.361,129.167 C 152.361,129.167 155.467,129.167 155.467,129.167 C 158.777,129.167 159.547,129.297 159.728,129.889 C 159.788,130.088 159.977,130.401 160.146,130.585 C 160.316,130.770 160.568,131.353 160.707,131.882 C 160.846,132.411 161.098,133.047 161.268,133.297 C 161.437,133.546 161.679,134.050 161.806,134.417 C 161.932,134.783 162.188,135.287 162.373,135.536 C 162.575,135.806 162.741,136.345 162.784,136.870 C 162.873,137.948 162.423,138.667 161.658,138.667 C 161.101,138.667 160.338,137.976 160.203,137.349 C 160.152,137.111 159.927,136.528 159.703,136.052 C 159.479,135.577 159.294,135.089 159.292,134.969 C 159.291,134.849 159.065,134.375 158.791,133.917 C 158.517,133.458 158.291,132.949 158.290,132.784 C 158.288,132.620 158.101,132.301 157.874,132.076 C 157.489,131.694 157.347,131.667 155.703,131.667 C 154.067,131.667 153.908,131.696 153.440,132.087 C 153.085,132.384 152.883,132.754 152.755,133.343 C 152.656,133.802 152.420,134.478 152.231,134.846 C 152.042,135.213 151.809,135.937 151.712,136.454 C 151.588,137.119 151.362,137.606 150.943,138.114 C 150.277,138.920 149.755,139.038 149.217,138.504" stroke="#262627" fill="#262627" stroke-width="1" />
  <path id="46" d="M 76.676,138.536 C 76.005,138.113 76.017,136.099 76.698,134.917 C 76.909,134.550 77.135,133.950 77.201,133.583 C 77.267,133.217 77.503,132.603 77.728,132.220 C 77.952,131.837 78.135,131.365 78.135,131.170 C 78.135,130.647 78.557,129.932 79.165,129.424 C 79.165,129.424 79.702,128.976 79.702,128.976 C 79.702,128.976 83.056,129.029 83.056,129.029 C 83.056,129.029 86.409,129.083 86.409,129.083 C 86.409,129.083 87.060,129.833 87.060,129.833 C 87.419,130.246 87.712,130.744 87.713,130.941 C 87.713,131.138 87.933,131.713 88.201,132.219 C 88.469,132.724 88.743,133.388 88.811,133.694 C 88.878,134 89.070,134.423 89.237,134.634 C 89.404,134.845 89.702,135.499 89.899,136.088 C 89.899,136.088 90.258,137.157 90.258,137.157 C 90.258,137.157 89.811,137.739 89.811,137.739 C 89.169,138.573 88.849,138.617 88.052,137.982 C 87.681,137.686 87.377,137.429 87.377,137.411 C 87.377,136.878 86.951,135.550 86.629,135.079 C 86.394,134.735 86.201,134.286 86.201,134.080 C 86.201,133.682 85.166,131.859 84.815,131.637 C 84.699,131.564 83.798,131.504 82.812,131.502 C 82.812,131.502 81.020,131.500 81.020,131.500 C 81.020,131.500 80.500,132.151 80.500,132.151 C 80.196,132.531 79.917,133.136 79.826,133.609 C 79.636,134.597 79.492,135.008 79.219,135.333 C 79.104,135.471 78.925,135.996 78.821,136.500 C 78.534,137.894 77.385,138.983 76.676,138.536" stroke="#262627" fill="#262627" stroke-width="1" />
  <path id="46" d="M 92.250,125.667 C 92.065,125.483 91.914,125.250 91.914,125.149 C 91.914,124.691 92.470,122.890 92.685,122.653 C 92.816,122.507 93.036,122.020 93.173,121.569 C 93.310,121.119 93.672,120.263 93.977,119.667 C 94.438,118.767 94.660,118.522 95.282,118.221 C 96.001,117.873 96.158,117.863 99.194,117.978 C 99.194,117.978 102.358,118.098 102.358,118.098 C 102.358,118.098 102.929,118.757 102.929,118.757 C 103.244,119.120 103.585,119.717 103.688,120.083 C 103.791,120.450 104.057,120.989 104.280,121.280 C 104.502,121.572 104.685,121.947 104.685,122.114 C 104.685,122.280 104.856,122.673 105.063,122.987 C 105.774,124.060 105.856,124.251 105.858,124.842 C 105.861,125.607 105.614,125.833 104.772,125.833 C 103.944,125.833 103.417,125.500 103.265,124.879 C 103.203,124.625 102.967,124.137 102.742,123.795 C 102.516,123.453 102.332,123.076 102.332,122.956 C 102.332,122.837 102.067,122.331 101.744,121.833 C 101.420,121.335 101.156,120.837 101.156,120.726 C 101.156,120.615 100.956,120.369 100.713,120.179 C 100.334,119.883 100.035,119.833 98.645,119.833 C 97.032,119.833 97.017,119.837 96.495,120.375 C 96.206,120.673 95.920,121.142 95.859,121.417 C 95.798,121.692 95.532,122.367 95.269,122.917 C 95.005,123.467 94.747,124.122 94.694,124.372 C 94.641,124.622 94.364,125.091 94.079,125.414 C 93.474,126.096 92.780,126.192 92.250,125.667" stroke="#262627" fill="#262627" stroke-width="1" />
  <path id="46" d="M 72.909,125.947 C 72.422,125.618 72.341,125.470 72.358,124.940 C 72.370,124.558 72.515,124.174 72.733,123.943 C 72.929,123.736 73.137,123.308 73.196,122.992 C 73.255,122.675 73.474,122.117 73.682,121.750 C 73.891,121.383 74.116,120.821 74.183,120.500 C 74.319,119.841 75.232,118.400 75.615,118.240 C 76.045,118.059 82.486,118.166 82.917,118.361 C 83.370,118.565 84.586,120.486 84.759,121.271 C 84.822,121.558 85.059,122.041 85.285,122.345 C 85.512,122.649 85.697,123.019 85.697,123.167 C 85.697,123.314 85.886,123.689 86.117,124 C 86.656,124.724 86.649,125.222 86.094,125.654 C 85.616,126.027 85.017,126.097 84.528,125.837 C 84.166,125.645 83.473,124.505 83.190,123.638 C 83.081,123.302 82.886,122.940 82.757,122.834 C 82.628,122.728 82.400,122.274 82.249,121.825 C 82.063,121.267 81.775,120.851 81.340,120.509 C 80.758,120.052 80.580,120.006 79.255,119.969 C 77.575,119.923 77.071,120.165 76.716,121.191 C 76.601,121.526 76.344,122.005 76.145,122.255 C 75.946,122.506 75.783,122.864 75.783,123.049 C 75.783,123.235 75.605,123.694 75.387,124.069 C 75.169,124.443 74.940,124.958 74.878,125.213 C 74.813,125.483 74.538,125.814 74.224,126.005 C 73.552,126.411 73.597,126.413 72.909,125.947" stroke="#262627" fill="#262627" stroke-width="1" />
  <path id="46" d="M 133.077,126.051 C 132.269,125.503 132.205,124.998 132.811,123.946 C 133.032,123.563 133.261,122.976 133.320,122.642 C 133.379,122.307 133.570,121.853 133.745,121.633 C 133.919,121.412 134.115,120.955 134.179,120.615 C 134.243,120.276 134.509,119.718 134.771,119.374 C 135.762,118.070 135.409,118.167 139.178,118.167 C 141.991,118.167 142.650,118.212 142.959,118.426 C 143.455,118.771 144.593,120.457 144.745,121.073 C 144.812,121.342 145.015,121.770 145.198,122.024 C 145.380,122.278 145.614,122.732 145.717,123.034 C 145.821,123.336 146.083,123.795 146.299,124.054 C 146.774,124.623 146.803,125.183 146.377,125.565 C 145.951,125.948 144.918,126.102 144.589,125.831 C 144.143,125.464 143.371,124.222 143.251,123.679 C 143.187,123.393 142.964,122.954 142.755,122.704 C 142.546,122.454 142.320,122.027 142.253,121.754 C 142.185,121.481 141.830,120.975 141.464,120.629 C 140.850,120.049 140.716,119.998 139.754,119.975 C 137.550,119.922 137.065,120.113 136.785,121.144 C 136.688,121.499 136.466,121.971 136.290,122.192 C 136.115,122.414 135.881,122.930 135.771,123.339 C 135.661,123.748 135.472,124.196 135.352,124.333 C 135.231,124.471 135.017,124.860 134.876,125.197 C 134.726,125.559 134.411,125.919 134.112,126.072 C 133.492,126.390 133.579,126.392 133.077,126.051" stroke="#262627" fill="#262627" stroke-width="1" />
  <path id="46" d="M 112.605,125.737 C 112.260,125.492 112.218,125.351 112.284,124.665 C 112.326,124.231 112.521,123.653 112.717,123.380 C 112.913,123.107 113.146,122.560 113.236,122.165 C 113.325,121.770 113.555,121.237 113.746,120.980 C 113.938,120.724 114.096,120.417 114.098,120.298 C 114.107,119.792 114.770,118.687 115.283,118.325 C 115.826,117.941 115.912,117.933 119.041,117.977 C 121.695,118.014 122.330,118.070 122.748,118.306 C 123.220,118.573 123.972,119.736 124.596,121.167 C 124.736,121.487 124.960,121.938 125.094,122.167 C 125.897,123.544 126.340,124.699 126.203,125.056 C 125.857,125.958 124.812,126.169 124.075,125.486 C 123.581,125.029 123.168,124.312 123.168,123.914 C 123.168,123.766 122.980,123.400 122.749,123.100 C 122.519,122.800 122.285,122.328 122.229,122.051 C 122.173,121.773 121.848,121.179 121.507,120.731 C 121.507,120.731 120.886,119.917 120.886,119.917 C 120.886,119.917 119.118,119.870 119.118,119.870 C 117.594,119.829 117.312,119.864 117.085,120.120 C 116.653,120.606 115.775,122.353 115.772,122.732 C 115.770,122.925 115.545,123.458 115.270,123.917 C 114.996,124.375 114.771,124.870 114.769,125.016 C 114.761,125.748 113.303,126.235 112.605,125.737" stroke="#262627" fill="#262627" stroke-width="1" />
  </g><g id="screen 2"><path id="46" d="M 17.566,156.417 C 16.711,156.195 16.550,156.049 15.749,154.771 C 15.749,154.771 15.282,154.026 15.282,154.026 C 15.282,154.026 15.347,149.471 15.347,149.471 C 15.406,145.380 15.446,144.840 15.745,144.167 C 15.928,143.754 16.129,143.213 16.191,142.963 C 16.252,142.714 16.472,142.421 16.679,142.313 C 16.886,142.204 17.219,141.959 17.419,141.766 C 17.619,141.574 18.175,141.117 18.655,140.750 C 19.134,140.383 19.943,139.708 20.452,139.250 C 20.960,138.792 21.543,138.304 21.746,138.167 C 21.948,138.029 22.262,137.782 22.441,137.617 C 22.621,137.452 23.344,136.852 24.047,136.284 C 24.750,135.715 26.131,134.556 27.116,133.708 C 28.101,132.860 29.005,132.167 29.125,132.167 C 29.245,132.167 29.565,131.933 29.836,131.648 C 30.652,130.791 34.938,127.167 35.136,127.167 C 35.335,127.167 35.697,126.860 38.830,124.035 C 40.867,122.198 41.507,121.641 42.463,120.873 C 42.721,120.665 43.840,119.748 44.949,118.834 C 46.058,117.920 47.154,117.024 47.385,116.844 C 49.105,115.503 52.363,112.600 52.495,112.293 C 52.629,111.978 52.827,106.289 52.772,104.333 C 52.586,97.770 52.539,93.236 52.652,92.725 C 52.730,92.372 52.789,91.858 52.782,91.583 C 52.775,91.308 52.763,90.183 52.755,89.083 C 52.747,87.983 52.733,86.708 52.724,86.250 C 52.715,85.792 52.712,84.423 52.716,83.208 C 52.720,81.994 52.723,80.737 52.723,80.417 C 52.721,77.384 52.724,74.898 52.729,74.417 C 52.733,74.096 52.739,73.421 52.742,72.917 C 52.746,72.412 52.751,71.756 52.753,71.458 C 52.755,71.160 52.722,68.367 52.680,65.250 C 52.637,62.133 52.605,57.971 52.607,56 C 52.620,45.987 52.578,40.411 52.489,40.057 C 52.434,39.840 52.475,39.195 52.580,38.623 C 52.695,37.993 52.714,37.386 52.627,37.083 C 52.524,36.725 52.571,36.337 52.791,35.712 C 52.960,35.233 53.100,34.371 53.102,33.796 C 53.111,31.360 55.691,28.164 58.475,27.143 C 58.891,26.990 59.541,26.750 59.920,26.609 C 60.761,26.295 63.377,25.935 63.979,26.049 C 64.221,26.095 64.764,26.019 65.186,25.881 C 65.834,25.670 68.099,25.617 79.816,25.542 C 94.767,25.446 94.630,25.447 97.375,25.458 C 98.392,25.462 99.488,25.462 99.811,25.459 C 100.135,25.456 102.857,25.459 105.861,25.466 C 108.864,25.473 114.913,25.473 119.303,25.467 C 123.693,25.461 128.381,25.467 129.721,25.481 C 131.061,25.495 134.993,25.504 138.459,25.503 C 141.925,25.501 150.143,25.507 156.722,25.516 C 163.301,25.525 168.761,25.485 168.856,25.427 C 169.044,25.311 171.157,25.546 173.451,25.937 C 174.260,26.074 174.981,26.150 175.054,26.105 C 175.128,26.060 175.787,26.098 176.520,26.188 C 178.150,26.388 179.550,26.891 181.805,28.083 C 182.486,28.443 183.828,29.745 183.828,30.044 C 183.828,30.146 183.969,30.383 184.141,30.573 C 184.313,30.762 184.688,31.367 184.975,31.917 C 185.394,32.720 185.531,33.250 185.667,34.611 C 185.775,35.681 185.838,46.563 185.838,64.111 C 185.838,79.404 185.840,96.516 185.841,102.138 C 185.841,102.138 185.844,112.359 185.844,112.359 C 185.844,112.359 186.322,112.804 186.322,112.804 C 187.393,113.803 188.901,115.087 189.170,115.230 C 189.328,115.314 189.880,115.765 190.397,116.233 C 191.236,116.992 192.338,117.887 194.750,119.771 C 195.166,120.095 195.922,120.753 196.430,121.231 C 197.305,122.055 199.348,123.821 200.692,124.917 C 201.029,125.192 201.588,125.670 201.934,125.980 C 202.280,126.289 202.828,126.737 203.152,126.976 C 203.475,127.214 204.193,127.790 204.748,128.255 C 205.302,128.720 205.945,129.218 206.176,129.361 C 206.407,129.505 207.254,130.213 208.057,130.936 C 208.860,131.659 210.096,132.700 210.802,133.250 C 211.509,133.800 212.288,134.440 212.534,134.672 C 212.780,134.904 213.821,135.804 214.848,136.672 C 216.502,138.071 217.412,138.800 218.746,139.794 C 219.521,140.371 222.004,142.638 222.262,143.004 C 222.798,143.762 222.961,145.305 222.975,149.750 C 222.983,152.133 222.916,154.383 222.826,154.750 C 222.717,155.193 222.454,155.591 222.040,155.938 C 221.510,156.380 221.238,156.473 220.224,156.556 C 219.568,156.610 212.490,156.612 204.496,156.561 C 196.502,156.511 189.507,156.481 188.953,156.494 C 188.398,156.507 181.442,156.522 173.494,156.527 C 165.546,156.532 158.589,156.541 158.035,156.548 C 156.526,156.566 50.097,156.513 49.318,156.493 C 48.948,156.484 41.840,156.512 33.523,156.556 C 21.441,156.618 18.232,156.591 17.566,156.417M 220.049,153.930 C 220.339,153.720 220.387,153.405 220.481,151.055 C 220.596,148.212 220.471,147.274 219.942,146.993 C 219.703,146.866 190.390,146.814 119.088,146.813 C 119.088,146.813 18.570,146.811 18.570,146.811 C 18.570,146.811 18.191,147.248 18.191,147.248 C 17.834,147.659 17.812,147.832 17.812,150.134 C 17.813,152.872 17.983,153.778 18.536,153.999 C 18.747,154.083 61.803,154.150 119.313,154.156 C 205.704,154.165 219.768,154.134 220.049,153.930M 218.564,144.136 C 218.682,144.039 218.779,143.805 218.779,143.618 C 218.779,143.256 218.333,142.667 218.060,142.667 C 217.883,142.667 213.744,139.146 213.066,138.418 C 212.835,138.170 212.362,137.823 212.015,137.647 C 211.669,137.471 211.385,137.251 211.385,137.159 C 211.385,137.067 211.215,136.923 211.007,136.840 C 210.799,136.756 209.622,135.784 208.391,134.678 C 207.161,133.571 206.071,132.667 205.969,132.667 C 205.805,132.667 203.657,130.898 203.236,130.416 C 203.143,130.310 202.311,129.560 201.387,128.749 C 200.463,127.938 199.681,127.211 199.649,127.133 C 199.618,127.055 199.315,126.851 198.977,126.680 C 198.639,126.509 197.748,125.817 196.996,125.143 C 196.244,124.468 195.239,123.617 194.762,123.250 C 194.286,122.883 193.673,122.396 193.401,122.167 C 193.128,121.938 192.697,121.581 192.442,121.374 C 192.186,121.168 191.032,120.212 189.877,119.250 C 188.722,118.288 187.588,117.351 187.357,117.168 C 187.126,116.985 186.372,116.367 185.682,115.796 C 185.682,115.796 184.427,114.756 184.427,114.756 C 184.427,114.756 160.645,114.700 160.645,114.700 C 147.565,114.669 136.598,114.639 136.275,114.633 C 135.392,114.617 54.391,114.798 54.153,114.817 C 53.977,114.831 52.559,115.952 49.854,118.215 C 49.503,118.509 48.973,118.948 48.678,119.190 C 48.383,119.432 47.029,120.576 45.668,121.732 C 44.308,122.888 43.148,123.833 43.090,123.833 C 43.002,123.833 41.924,124.725 37.807,128.201 C 37.576,128.397 36.631,129.200 35.706,129.986 C 33.648,131.737 32.480,132.676 31.926,133.023 C 31.695,133.168 31.128,133.637 30.666,134.064 C 30.204,134.491 29.676,134.970 29.492,135.127 C 29.309,135.284 28.528,135.957 27.759,136.623 C 26.989,137.288 26.307,137.834 26.244,137.834 C 26.181,137.835 25.660,138.266 25.087,138.792 C 22.859,140.840 20.744,142.583 20.080,142.921 C 19.697,143.115 19.548,143.748 19.811,144.062 C 20.045,144.343 218.224,144.416 218.564,144.136M 182.970,111.922 C 183.216,111.678 183.239,108.270 183.236,72.857 C 183.233,38.219 183.205,34.015 182.974,33.654 C 182.832,33.432 182.583,32.897 182.421,32.466 C 182.132,31.699 181.509,31.038 180.534,30.463 C 180.266,30.305 179.934,30.102 179.795,30.011 C 179.113,29.564 177.079,28.858 176.182,28.757 C 175.628,28.694 174.833,28.545 174.416,28.426 C 173.991,28.304 173.271,28.245 172.779,28.292 C 172.254,28.342 171.693,28.289 171.381,28.161 C 170.961,27.989 160.830,27.945 119.170,27.932 C 74.492,27.919 67.422,27.949 67.053,28.156 C 66.797,28.300 66.118,28.404 65.365,28.415 C 63.817,28.438 60.760,28.931 60.267,29.237 C 60.067,29.361 59.601,29.558 59.232,29.674 C 57.964,30.073 55.794,32.104 55.790,32.896 C 55.788,33.159 55.589,33.811 55.348,34.345 C 54.910,35.313 54.910,35.318 55.021,38.449 C 55.082,40.173 55.121,43.083 55.108,44.917 C 55.095,46.750 55.089,48.625 55.096,49.083 C 55.103,49.542 55.107,54.679 55.104,60.500 C 55.100,66.321 55.100,71.271 55.103,71.500 C 55.113,72.221 55.150,85.376 55.144,86.250 C 55.142,86.708 55.130,88.021 55.119,89.167 C 55.108,90.312 55.110,91.475 55.125,91.750 C 55.180,92.787 55.167,103.123 55.109,104 C 55.076,104.504 55.075,106.365 55.107,108.135 C 55.160,110.996 55.202,111.398 55.487,111.757 C 55.487,111.757 55.807,112.162 55.807,112.162 C 55.807,112.162 60.544,112.206 60.544,112.206 C 63.149,112.230 91.700,112.236 123.990,112.220 C 177.663,112.193 182.723,112.167 182.970,111.922" stroke="#262627" fill="#262627" stroke-width="1" />
  <path id="46" d="M 172.226,125.575 C 172.226,125.575 171.824,125.150 171.824,125.150 C 171.824,125.150 172.116,124.034 172.116,124.034 C 172.277,123.419 172.549,122.726 172.720,122.493 C 172.891,122.261 173.088,121.813 173.158,121.499 C 173.228,121.185 173.585,120.345 173.952,119.632 C 174.814,117.960 174.847,117.950 179.102,118.025 C 179.102,118.025 182.343,118.083 182.343,118.083 C 182.343,118.083 182.991,118.833 182.991,118.833 C 183.347,119.246 183.717,119.892 183.813,120.268 C 183.910,120.645 184.103,121.048 184.243,121.163 C 184.383,121.278 184.581,121.682 184.682,122.061 C 184.784,122.440 185.059,123.002 185.294,123.310 C 185.790,123.959 185.999,125.198 185.677,125.582 C 185.243,126.101 183.324,125.736 183.324,125.134 C 183.324,124.714 181.055,120.458 180.672,120.160 C 180.322,119.887 179.988,119.833 178.628,119.833 C 177.071,119.833 176.982,119.853 176.556,120.294 C 176.312,120.547 175.993,121.091 175.848,121.502 C 175.704,121.913 175.388,122.662 175.147,123.167 C 174.905,123.671 174.564,124.388 174.389,124.759 C 174.081,125.412 173.360,126 172.867,126 C 172.736,126 172.447,125.809 172.226,125.575" stroke="#262627" fill="#262627" stroke-width="1" />
  <path id="46" d="M 56.946,138.316 C 56.350,137.683 56.338,137.291 56.877,136.142 C 57.108,135.651 57.297,135.092 57.297,134.900 C 57.298,134.707 57.484,134.205 57.710,133.783 C 57.936,133.362 58.173,132.732 58.237,132.383 C 58.301,132.035 58.651,131.209 59.015,130.547 C 59.820,129.082 59.665,129.126 63.794,129.197 C 66.513,129.244 66.881,129.284 67.196,129.568 C 67.719,130.038 68.677,131.819 68.817,132.583 C 68.885,132.950 69.070,133.438 69.228,133.667 C 69.386,133.896 69.636,134.442 69.784,134.880 C 69.932,135.317 70.207,135.871 70.397,136.110 C 70.908,136.755 70.850,137.585 70.251,138.179 C 69.722,138.703 69.288,138.790 68.851,138.458 C 68.412,138.126 67.444,136.290 67.221,135.365 C 67.108,134.898 66.908,134.428 66.777,134.320 C 66.645,134.212 66.420,133.722 66.276,133.232 C 65.868,131.840 65.536,131.667 63.268,131.667 C 61.159,131.667 60.928,131.773 60.722,132.844 C 60.661,133.159 60.442,133.717 60.234,134.083 C 60.027,134.450 59.806,135.037 59.744,135.387 C 59.577,136.336 58.558,138.445 58.167,138.652 C 57.650,138.927 57.477,138.879 56.946,138.316" stroke="#262627" fill="#262627" stroke-width="1" />
  <path id="46" d="M 95.069,138.576 C 94.817,138.439 94.539,138.194 94.451,138.031 C 94.208,137.580 94.167,130.496 94.405,130.054 C 94.639,129.620 95.636,129.262 96.212,129.405 C 96.738,129.536 141.790,129.538 142.004,129.407 C 142.286,129.234 143.297,129.672 143.570,130.086 C 143.716,130.307 143.836,130.677 143.836,130.907 C 143.836,131.138 143.959,131.632 144.110,132.006 C 144.311,132.504 144.355,132.935 144.274,133.619 C 144.213,134.133 144.253,135.137 144.363,135.851 C 144.363,135.851 144.564,137.149 144.564,137.149 C 144.564,137.149 143.990,137.813 143.990,137.813 C 143.655,138.200 143.171,138.546 142.828,138.642 C 142.454,138.746 133.735,138.810 118.883,138.815 C 98.487,138.823 95.468,138.793 95.069,138.576M 141.325,135.898 C 141.954,135.274 141.966,133.088 141.345,132.328 C 141.345,132.328 141.056,131.974 141.056,131.974 C 141.056,131.974 119.300,131.984 119.300,131.984 C 119.300,131.984 97.543,131.994 97.543,131.994 C 97.543,131.994 97.165,132.423 97.165,132.423 C 96.838,132.793 96.787,133.039 96.787,134.227 C 96.787,135.605 96.937,136.048 97.459,136.204 C 97.598,136.245 107.445,136.272 119.342,136.263 C 119.342,136.263 140.974,136.246 140.974,136.246 C 140.974,136.246 141.325,135.898 141.325,135.898" stroke="#262627" fill="#262627" stroke-width="1" />
  <path id="46" d="M 37.346,138.577 C 36.785,138.188 36.532,137.174 36.844,136.569 C 36.982,136.302 37.182,135.672 37.289,135.169 C 37.397,134.666 37.625,134.019 37.796,133.731 C 37.967,133.443 38.156,132.955 38.215,132.645 C 38.274,132.336 38.604,131.503 38.947,130.794 C 39.437,129.784 39.677,129.469 40.059,129.336 C 40.327,129.243 41.917,129.167 43.592,129.167 C 46.127,129.167 46.704,129.212 47.027,129.436 C 47.601,129.835 48.477,131.286 48.789,132.353 C 48.939,132.868 49.170,133.378 49.301,133.486 C 49.433,133.595 49.630,134.054 49.739,134.506 C 49.849,134.959 50.070,135.499 50.231,135.706 C 50.633,136.223 50.921,137.116 50.798,137.463 C 50.621,137.965 49.856,138.667 49.486,138.667 C 49.290,138.667 49.004,138.573 48.851,138.458 C 48.497,138.194 47.460,136.217 47.303,135.509 C 47.238,135.213 46.965,134.558 46.697,134.052 C 46.428,133.546 46.209,132.997 46.209,132.831 C 46.209,132.665 45.976,132.335 45.692,132.098 C 45.209,131.695 45.061,131.667 43.442,131.667 C 41.338,131.667 41.105,131.803 40.727,133.250 C 40.584,133.800 40.365,134.363 40.241,134.501 C 40.116,134.638 39.888,135.303 39.734,135.976 C 39.368,137.570 38.527,138.833 37.831,138.833 C 37.767,138.833 37.548,138.718 37.346,138.577" stroke="#262627" fill="#262627" stroke-width="1" />
  <path id="46" d="M 169.204,138.412 C 168.923,138.115 168.809,137.806 168.819,137.370 C 168.836,136.555 169.409,134.569 169.839,133.833 C 170.027,133.512 170.231,132.963 170.293,132.612 C 170.449,131.726 171.597,129.667 172.083,129.400 C 172.636,129.096 178.533,129.085 179.081,129.387 C 179.558,129.649 180.583,131.212 180.729,131.898 C 180.790,132.183 181.014,132.754 181.229,133.167 C 181.443,133.579 181.711,134.217 181.825,134.583 C 181.939,134.950 182.180,135.448 182.361,135.691 C 182.541,135.933 182.728,136.474 182.775,136.891 C 182.853,137.572 182.808,137.703 182.350,138.159 C 182.068,138.438 181.710,138.667 181.556,138.667 C 181.178,138.667 180.132,137.612 180.126,137.225 C 180.123,137.055 179.934,136.617 179.707,136.250 C 179.479,135.883 179.292,135.463 179.292,135.315 C 179.291,135.168 179.064,134.625 178.787,134.110 C 178.510,133.595 178.283,133.018 178.283,132.829 C 178.283,132.640 178.097,132.301 177.870,132.076 C 177.484,131.693 177.343,131.667 175.680,131.667 C 173.419,131.667 173.201,131.791 172.734,133.345 C 172.546,133.973 172.323,134.529 172.239,134.580 C 172.155,134.631 171.960,135.253 171.804,135.962 C 171.648,136.670 171.378,137.405 171.205,137.594 C 171.031,137.783 170.889,138.023 170.889,138.126 C 170.889,138.369 170.222,138.833 169.873,138.833 C 169.725,138.833 169.424,138.643 169.204,138.412" stroke="#262627" fill="#262627" stroke-width="1" />
  <path id="46" d="M 52.867,125.929 C 52.282,125.455 52.237,124.836 52.738,124.164 C 52.933,123.903 53.161,123.383 53.246,123.008 C 53.331,122.633 53.539,122.122 53.708,121.872 C 53.878,121.621 54.112,121.053 54.230,120.609 C 54.348,120.164 54.598,119.602 54.787,119.359 C 54.975,119.116 55.258,118.746 55.416,118.538 C 55.750,118.097 56.034,118.071 60.017,118.129 C 62.525,118.165 62.673,118.186 63.125,118.567 C 63.387,118.787 63.889,119.555 64.241,120.275 C 65.352,122.546 65.893,123.564 66.342,124.224 C 66.745,124.818 66.759,124.897 66.529,125.302 C 66.254,125.789 65.433,126.095 64.815,125.941 C 64.417,125.842 63.348,124.377 63.348,123.929 C 63.348,123.810 63.150,123.423 62.907,123.068 C 62.665,122.714 62.360,122.124 62.229,121.758 C 61.963,121.009 61.451,120.401 60.828,120.095 C 60.313,119.843 58.017,119.875 57.514,120.142 C 57.180,120.319 55.787,122.912 55.787,123.356 C 55.787,123.728 54.908,125.419 54.477,125.875 C 53.950,126.432 53.506,126.447 52.867,125.929" stroke="#262627" fill="#262627" stroke-width="1" />
  <path id="46" d="M 188.677,138.347 C 188.326,138.065 188.283,137.897 188.299,136.889 C 188.314,135.983 188.408,135.597 188.759,135 C 189.002,134.587 189.202,134.100 189.204,133.917 C 189.205,133.733 189.432,133.133 189.709,132.583 C 189.986,132.033 190.212,131.387 190.212,131.147 C 190.213,130.887 190.492,130.363 190.900,129.855 C 191.456,129.162 191.687,128.997 192.118,128.986 C 192.410,128.978 193.935,128.983 195.506,128.996 C 195.506,128.996 198.363,129.019 198.363,129.019 C 198.363,129.019 198.977,129.635 198.977,129.635 C 199.576,130.235 200.231,131.569 200.750,133.250 C 200.892,133.708 201.111,134.201 201.238,134.345 C 201.431,134.564 201.823,135.537 202.255,136.871 C 202.348,137.156 201.681,138.106 201.189,138.388 C 200.930,138.538 200.500,138.309 199.775,137.635 C 199.467,137.349 199.306,136.986 199.227,136.395 C 199.162,135.910 198.940,135.325 198.697,134.998 C 198.467,134.688 198.279,134.243 198.279,134.008 C 198.279,133.424 197.136,131.677 196.698,131.590 C 196.022,131.456 193.755,131.361 193.405,131.452 C 192.914,131.579 191.970,133.107 191.748,134.135 C 191.646,134.606 191.410,135.273 191.224,135.618 C 191.038,135.963 190.885,136.420 190.885,136.633 C 190.885,137.160 190.601,137.660 189.991,138.208 C 189.386,138.752 189.204,138.771 188.677,138.347" stroke="#262627" fill="#262627" stroke-width="1" />
  <path id="46" d="M 152.753,125.866 C 152.245,125.445 152.199,125.338 152.301,124.799 C 152.364,124.470 152.550,124.024 152.714,123.808 C 152.879,123.593 153.112,123.079 153.231,122.667 C 153.350,122.254 153.558,121.793 153.693,121.642 C 153.829,121.491 154.040,120.987 154.164,120.524 C 154.477,119.347 155.469,118.171 156.165,118.153 C 156.454,118.145 158.014,118.149 159.631,118.160 C 162.946,118.184 163.137,118.243 163.755,119.426 C 163.944,119.788 164.218,120.271 164.365,120.500 C 164.512,120.729 164.684,121.142 164.748,121.417 C 164.811,121.692 164.988,122.104 165.141,122.333 C 165.586,122.999 166.520,124.878 166.520,125.107 C 166.520,125.494 165.384,126.213 164.945,126.103 C 164.368,125.960 163.543,124.958 163.318,124.129 C 163.212,123.739 162.992,123.231 162.829,123.001 C 162.667,122.772 162.382,122.246 162.196,121.833 C 162.010,121.421 161.596,120.837 161.276,120.535 C 161.276,120.535 160.695,119.988 160.695,119.988 C 160.695,119.988 158.952,120.035 158.952,120.035 C 158.952,120.035 157.209,120.083 157.209,120.083 C 157.209,120.083 156.488,121.491 156.488,121.491 C 156.091,122.266 155.766,123.024 155.766,123.176 C 155.766,123.329 155.577,123.730 155.346,124.067 C 155.115,124.405 154.926,124.749 154.926,124.833 C 154.926,125.210 154.520,125.803 154.088,126.056 C 153.465,126.421 153.414,126.413 152.753,125.866" stroke="#262627" fill="#262627" stroke-width="1" />
  </g><g id="screen 1"><path id="46" d="M 118.405,32.528 C 117.735,31.794 118.407,30.333 119.414,30.333 C 119.820,30.333 120.648,31.267 120.648,31.725 C 120.648,32.624 119.024,33.206 118.405,32.528" stroke="#262627" fill="#262627" stroke-width="1" />
  </g><g id="screen face"><path id="46" d="M 62.910,105.510 C 62.715,105.428 62.497,105.224 62.427,105.056 C 62.357,104.888 62.280,89.487 62.256,70.833 C 62.221,43.486 62.255,36.850 62.428,36.572 C 62.729,36.092 64.260,35.745 65.312,35.919 C 65.757,35.993 66.386,36.037 66.709,36.019 C 68.843,35.894 174.444,35.893 174.945,36.017 C 175.708,36.207 175.953,36.493 175.953,37.197 C 175.953,37.501 175.965,41.200 175.981,45.417 C 176.013,54.342 175.989,87.643 175.947,93.250 C 175.931,95.358 175.927,98.670 175.939,100.609 C 175.952,102.746 175.892,104.260 175.787,104.454 C 175.692,104.630 175.326,104.965 174.974,105.199 C 174.974,105.199 174.334,105.623 174.334,105.623 C 174.334,105.623 139.299,105.564 139.299,105.564 C 120.030,105.532 104.037,105.508 103.760,105.512 C 102.035,105.532 69.677,105.511 69.061,105.489 C 68.646,105.475 67.171,105.507 65.785,105.561 C 64.399,105.614 63.105,105.591 62.910,105.510M 153.763,103.138 C 172.158,103.129 172.787,103.118 173.093,102.814 C 173.360,102.549 173.413,102.225 173.431,100.750 C 173.442,99.787 173.485,98.456 173.526,97.792 C 173.567,97.127 173.586,96.171 173.567,95.667 C 173.534,94.760 173.526,91.874 173.554,90.583 C 173.571,89.739 173.445,39.154 173.425,38.881 C 173.383,38.324 172.785,38.297 158.810,38.228 C 151.175,38.190 144.739,38.169 144.508,38.182 C 144.277,38.194 126.406,38.224 104.795,38.248 C 104.795,38.248 65.501,38.291 65.501,38.291 C 65.501,38.291 65.147,38.641 65.147,38.641 C 64.798,38.988 64.793,39.090 64.753,48.109 C 64.728,53.790 64.775,57.341 64.877,57.530 C 65.086,57.918 65.809,57.923 66.016,57.539 C 66.104,57.377 66.228,56.963 66.293,56.620 C 66.358,56.278 66.557,55.813 66.736,55.587 C 66.915,55.362 67.127,54.781 67.208,54.297 C 67.377,53.278 67.520,52.849 67.803,52.500 C 67.915,52.362 68.095,51.885 68.205,51.439 C 68.315,50.992 68.590,50.356 68.817,50.025 C 69.044,49.694 69.230,49.301 69.230,49.153 C 69.230,49.005 69.455,48.553 69.731,48.150 C 70.006,47.747 70.233,47.296 70.235,47.148 C 70.239,46.788 72.464,44.060 73.514,43.127 C 74.283,42.445 74.635,42.210 75.928,41.513 C 77.047,40.911 81.191,41.016 81.997,41.668 C 82.230,41.857 82.739,42.161 83.130,42.344 C 83.811,42.665 83.881,42.667 84.894,42.407 C 86.311,42.042 88.186,42.199 89.171,42.764 C 89.557,42.986 89.995,43.167 90.144,43.167 C 90.293,43.167 90.938,43.654 91.578,44.250 C 92.573,45.177 92.830,45.333 93.358,45.333 C 93.697,45.333 94.210,45.190 94.499,45.014 C 95.549,44.374 96.537,44.400 98.887,45.132 C 100.047,45.494 101.381,46.784 101.851,48 C 102.904,50.725 102.873,50.536 102.789,53.610 C 102.720,56.133 102.667,56.564 102.338,57.239 C 102.132,57.660 101.898,58.523 101.818,59.158 C 101.737,59.793 101.522,60.635 101.338,61.031 C 101.154,61.426 100.466,63.400 99.808,65.417 C 99.150,67.433 98.428,69.432 98.204,69.858 C 97.979,70.284 97.795,70.778 97.795,70.955 C 97.795,71.132 97.606,71.646 97.376,72.097 C 97.145,72.548 96.870,73.353 96.763,73.887 C 96.657,74.421 96.402,75.104 96.196,75.404 C 95.734,76.080 95.315,77.611 95.537,77.816 C 95.959,78.208 96.433,78.173 96.983,77.709 C 97.291,77.449 97.732,77.141 97.963,77.024 C 98.194,76.907 98.648,76.666 98.971,76.489 C 99.295,76.312 99.779,76.167 100.047,76.167 C 100.316,76.167 100.938,75.977 101.431,75.746 C 102.254,75.360 102.482,75.330 104.235,75.380 C 105.897,75.427 106.203,75.480 106.612,75.800 C 106.911,76.033 107.317,76.167 107.726,76.167 C 108.552,76.167 108.777,75.808 108.521,74.899 C 108.219,73.822 108.460,67.500 108.854,66.167 C 109.030,65.571 109.230,64.633 109.298,64.083 C 109.366,63.533 109.604,62.654 109.826,62.130 C 110.048,61.606 110.230,61.036 110.230,60.863 C 110.230,60.691 110.414,60.205 110.640,59.783 C 110.866,59.362 111.101,58.732 111.161,58.383 C 111.221,58.035 111.490,57.438 111.758,57.056 C 112.026,56.675 112.247,56.300 112.249,56.223 C 112.256,55.919 114.058,53.319 115.331,51.776 C 116.353,50.537 117.013,49.876 118.295,48.803 C 120.545,46.920 121.337,46.335 121.788,46.223 C 122.026,46.164 122.483,45.939 122.802,45.724 C 123.122,45.509 123.475,45.333 123.588,45.333 C 123.701,45.333 124.200,45.121 124.699,44.861 C 125.197,44.601 125.983,44.286 126.445,44.162 C 126.907,44.038 127.512,43.805 127.789,43.644 C 128.066,43.483 128.747,43.279 129.301,43.191 C 129.856,43.102 130.650,42.909 131.066,42.762 C 131.481,42.615 132.691,42.412 133.754,42.312 C 136.024,42.097 143.012,42.210 143.752,42.473 C 144.029,42.572 144.899,42.888 145.684,43.177 C 146.470,43.465 147.568,43.861 148.124,44.058 C 148.680,44.255 149.399,44.574 149.720,44.766 C 150.042,44.958 150.546,45.208 150.839,45.323 C 151.133,45.437 151.504,45.673 151.664,45.849 C 151.823,46.023 152.023,46.167 152.108,46.167 C 152.269,46.167 153.162,46.872 155.238,48.637 C 156.467,49.682 157.153,50.423 158.287,51.930 C 158.610,52.360 159.083,52.955 159.337,53.253 C 159.591,53.550 159.799,53.869 159.799,53.960 C 159.799,54.051 159.925,54.229 160.078,54.355 C 160.232,54.480 160.526,54.961 160.733,55.423 C 160.939,55.885 161.222,56.357 161.361,56.472 C 161.501,56.587 161.665,56.883 161.726,57.132 C 161.787,57.380 162.020,57.848 162.244,58.172 C 162.468,58.495 162.725,59.153 162.817,59.631 C 162.909,60.111 163.136,60.708 163.322,60.959 C 163.508,61.211 163.735,61.810 163.826,62.291 C 163.917,62.773 164.117,63.407 164.270,63.702 C 164.424,63.996 164.617,64.838 164.700,65.573 C 164.783,66.308 164.955,67.323 165.081,67.829 C 165.214,68.358 165.358,70.203 165.419,72.167 C 165.509,75.035 165.483,75.730 165.256,76.500 C 165.108,77.004 164.888,78.141 164.768,79.027 C 164.634,80.019 164.420,80.850 164.211,81.193 C 164.024,81.499 163.819,82.125 163.755,82.583 C 163.690,83.042 163.455,83.730 163.231,84.113 C 163.007,84.496 162.824,84.954 162.824,85.131 C 162.824,85.309 162.634,85.731 162.402,86.071 C 162.169,86.410 161.866,86.927 161.728,87.219 C 161.447,87.813 160.880,88.654 160.231,89.439 C 159.994,89.727 159.799,90.013 159.799,90.075 C 159.799,90.569 155.199,95.213 154.094,95.833 C 153.403,96.222 152.593,96.712 151.928,97.146 C 151.594,97.364 151.017,97.645 150.645,97.772 C 150.273,97.899 149.814,98.081 149.625,98.178 C 149.312,98.337 147.489,99 145.768,99.579 C 145.399,99.703 144.491,99.925 143.752,100.072 C 143.013,100.219 142.030,100.422 141.568,100.523 C 140.449,100.767 131.357,100.611 130.645,100.335 C 130.368,100.227 129.499,100.027 128.713,99.891 C 127.928,99.755 126.964,99.503 126.572,99.332 C 126.180,99.160 125.390,98.901 124.815,98.755 C 124.241,98.609 123.648,98.379 123.497,98.244 C 123.347,98.109 122.879,97.882 122.457,97.739 C 122.035,97.597 121.557,97.334 121.395,97.157 C 121.232,96.979 121.004,96.833 120.886,96.833 C 120.769,96.833 120.327,96.571 119.903,96.250 C 119.479,95.929 119.071,95.667 118.995,95.667 C 118.920,95.667 118.680,95.479 118.463,95.250 C 118.246,95.021 117.981,94.833 117.874,94.833 C 117.768,94.833 117.100,94.215 116.390,93.458 C 114.487,91.431 114.262,91.170 114.262,90.983 C 114.262,90.890 114.043,90.537 113.775,90.198 C 113.507,89.860 113.234,89.396 113.168,89.167 C 113.102,88.938 112.912,88.600 112.745,88.417 C 112.579,88.233 112.335,87.708 112.202,87.250 C 112.021,86.628 111.854,86.379 111.543,86.269 C 110.991,86.074 110.218,86.443 109.930,87.039 C 109.711,87.492 107.538,89.531 107.156,89.642 C 106.595,89.806 104.373,90.945 103.957,91.282 C 103.696,91.494 103.280,91.714 103.033,91.772 C 102.786,91.830 102.432,92.013 102.246,92.180 C 102.060,92.347 101.630,92.599 101.291,92.739 C 100.952,92.880 100.627,93.072 100.568,93.166 C 100.509,93.261 100.145,93.497 99.758,93.692 C 98.909,94.119 98.333,94.553 95.932,96.571 C 94.254,97.981 93.179,99.204 91.473,101.644 C 90.367,103.226 88.259,103.078 112.516,103.127 C 124.243,103.150 133.914,103.200 134.006,103.237 C 134.099,103.274 134.304,103.269 134.462,103.226 C 134.621,103.183 143.306,103.143 153.763,103.138M 87.356,102.866 C 87.721,102.700 88.010,102.401 88.169,102.023 C 88.305,101.701 88.592,101.208 88.808,100.927 C 89.023,100.647 89.253,100.204 89.318,99.945 C 89.383,99.685 89.537,99.435 89.659,99.388 C 89.782,99.342 90.025,99.066 90.199,98.777 C 90.867,97.667 94.537,94.082 96.367,92.751 C 97.309,92.066 98.786,91.167 98.968,91.167 C 99.082,91.167 99.400,90.979 99.674,90.750 C 99.949,90.521 100.376,90.287 100.623,90.231 C 100.870,90.174 101.336,89.960 101.660,89.755 C 102.801,89.029 103.433,88.671 104.264,88.279 C 104.726,88.060 105.249,87.720 105.425,87.524 C 105.601,87.328 105.829,87.167 105.932,87.167 C 106.227,87.167 107.653,85.738 108.473,84.620 C 109.205,83.622 109.221,83.572 109.221,82.315 C 109.221,81.046 109.213,81.020 108.487,80.136 C 107.564,79.012 106.358,78.025 105.650,77.813 C 104.797,77.558 102.705,77.796 101.813,78.249 C 101.390,78.465 100.755,78.695 100.404,78.760 C 100.052,78.826 99.454,79.055 99.074,79.271 C 98.694,79.486 98.266,79.663 98.122,79.665 C 97.978,79.666 97.335,79.929 96.693,80.249 C 96.052,80.570 95.462,80.832 95.383,80.833 C 95.304,80.833 95.014,81.021 94.740,81.250 C 94.357,81.570 94.050,81.667 93.422,81.667 C 92.684,81.667 92.559,81.609 92.155,81.084 C 91.859,80.699 91.736,80.373 91.793,80.125 C 92.085,78.864 92.472,77.702 92.748,77.260 C 92.922,76.979 93.157,76.375 93.270,75.917 C 93.383,75.458 93.614,74.808 93.783,74.473 C 93.952,74.137 94.170,73.499 94.268,73.056 C 94.366,72.613 94.582,72.062 94.748,71.833 C 94.913,71.604 95.144,71.042 95.259,70.583 C 95.374,70.125 95.609,69.523 95.782,69.245 C 95.955,68.967 96.179,68.374 96.280,67.928 C 96.381,67.482 96.603,66.922 96.773,66.684 C 96.943,66.445 97.137,65.912 97.203,65.500 C 97.270,65.087 97.471,64.416 97.650,64.007 C 97.829,63.599 98.094,62.736 98.239,62.091 C 98.385,61.445 98.640,60.692 98.807,60.417 C 98.975,60.142 99.165,59.617 99.232,59.250 C 99.298,58.883 99.495,58.303 99.669,57.959 C 100.098,57.112 100.375,54.239 100.270,51.729 C 100.187,49.757 100.171,49.688 99.598,48.843 C 99.001,47.964 97.492,46.833 96.915,46.833 C 96.511,46.833 94.241,47.625 94.020,47.843 C 93.923,47.940 93.807,49.200 93.757,50.716 C 93.680,53.019 93.616,53.515 93.317,54.083 C 93.124,54.450 92.886,55.212 92.787,55.777 C 92.689,56.342 92.461,57.092 92.280,57.444 C 92.100,57.795 91.860,58.533 91.746,59.083 C 91.632,59.633 91.396,60.362 91.222,60.703 C 91.047,61.044 90.825,61.718 90.727,62.203 C 90.629,62.687 90.365,63.505 90.139,64.021 C 89.914,64.536 89.730,65.092 89.730,65.256 C 89.730,65.420 89.540,65.875 89.307,66.268 C 89.075,66.661 88.840,67.343 88.784,67.783 C 88.729,68.223 88.512,68.849 88.303,69.174 C 88.094,69.499 87.869,70.099 87.803,70.507 C 87.737,70.916 87.506,71.521 87.291,71.853 C 87.075,72.184 86.810,72.784 86.702,73.186 C 86.594,73.588 86.368,74.142 86.199,74.417 C 86.031,74.692 85.823,75.299 85.738,75.767 C 85.572,76.680 84.871,77.753 84.329,77.924 C 83.725,78.114 83.236,77.610 83.125,76.682 C 83.018,75.786 83.345,74.197 83.767,73.557 C 83.897,73.359 84.094,72.834 84.205,72.391 C 84.316,71.946 84.584,71.322 84.800,71.003 C 85.016,70.684 85.193,70.270 85.193,70.084 C 85.193,69.897 85.411,69.296 85.678,68.748 C 85.946,68.199 86.218,67.487 86.285,67.167 C 86.351,66.846 86.550,66.426 86.728,66.234 C 86.915,66.032 87.123,65.440 87.222,64.834 C 87.316,64.256 87.578,63.469 87.805,63.085 C 88.032,62.701 88.217,62.261 88.217,62.107 C 88.217,61.953 88.400,61.309 88.623,60.675 C 88.846,60.042 89.119,59.087 89.230,58.553 C 89.342,58.020 89.575,57.304 89.750,56.964 C 89.924,56.623 90.148,55.948 90.248,55.464 C 90.347,54.980 90.588,54.361 90.783,54.088 C 91.060,53.702 91.164,53.230 91.254,51.935 C 91.407,49.744 91.228,48.409 90.644,47.395 C 90.030,46.329 89.798,46.071 88.892,45.452 C 88.259,45.020 87.937,44.922 86.949,44.867 C 85.409,44.780 85.217,44.961 85.519,46.214 C 85.646,46.741 85.706,47.839 85.671,49.005 C 85.620,50.669 85.564,50.987 85.250,51.383 C 85.047,51.639 84.835,52.223 84.768,52.712 C 84.702,53.191 84.477,53.883 84.267,54.250 C 84.058,54.617 83.836,55.201 83.774,55.548 C 83.713,55.896 83.513,56.526 83.331,56.948 C 83.148,57.370 82.858,58.323 82.686,59.066 C 82.320,60.640 81.776,62.305 81.318,63.250 C 81.140,63.617 80.918,64.324 80.824,64.822 C 80.730,65.320 80.492,65.995 80.296,66.322 C 80.100,66.649 79.835,67.356 79.707,67.893 C 79.579,68.430 79.325,69.059 79.141,69.291 C 78.958,69.522 78.807,69.879 78.807,70.082 C 78.807,70.286 78.616,70.734 78.381,71.076 C 78.139,71.430 77.854,72.214 77.720,72.891 C 77.428,74.374 76.750,75.783 76.212,76.026 C 75.705,76.255 75.136,76.120 74.626,75.649 C 74.306,75.353 74.249,75.167 74.319,74.648 C 74.366,74.298 74.555,73.822 74.739,73.590 C 74.922,73.359 75.126,72.890 75.190,72.548 C 75.255,72.206 75.487,71.623 75.707,71.251 C 75.926,70.880 76.193,70.165 76.299,69.663 C 76.406,69.161 76.590,68.637 76.709,68.500 C 76.829,68.362 77.040,67.868 77.178,67.401 C 77.316,66.934 77.578,66.260 77.760,65.901 C 77.941,65.543 78.143,64.956 78.209,64.598 C 78.275,64.239 78.503,63.589 78.715,63.152 C 78.928,62.715 79.155,62.070 79.221,61.720 C 79.287,61.370 79.561,60.635 79.830,60.086 C 80.099,59.537 80.320,58.950 80.320,58.782 C 80.320,58.613 80.512,57.906 80.748,57.210 C 80.983,56.514 81.239,55.451 81.316,54.848 C 81.393,54.244 81.611,53.487 81.801,53.167 C 81.997,52.835 82.193,52.117 82.255,51.500 C 82.315,50.904 82.481,50.050 82.623,49.602 C 82.831,48.950 82.847,48.617 82.703,47.935 C 82.604,47.467 82.441,46.665 82.340,46.154 C 82.192,45.403 82.022,45.096 81.449,44.544 C 80.496,43.628 79.768,43.445 78.052,43.691 C 76.926,43.852 76.571,43.985 75.867,44.505 C 74.530,45.494 72.758,47.373 72.758,47.802 C 72.758,47.897 72.577,48.188 72.355,48.450 C 72.133,48.712 71.865,49.244 71.759,49.633 C 71.654,50.022 71.382,50.612 71.154,50.943 C 70.927,51.275 70.742,51.736 70.742,51.967 C 70.742,52.198 70.562,52.694 70.342,53.069 C 70.122,53.443 69.888,54.087 69.821,54.500 C 69.755,54.913 69.530,55.550 69.320,55.917 C 69.110,56.283 68.886,56.883 68.822,57.250 C 68.757,57.617 68.531,58.254 68.319,58.667 C 68.107,59.079 67.839,59.809 67.725,60.290 C 67.610,60.770 67.383,61.332 67.219,61.540 C 67.055,61.747 66.834,62.324 66.726,62.821 C 66.619,63.318 66.391,63.956 66.218,64.238 C 66.046,64.519 65.852,65.087 65.787,65.500 C 65.723,65.912 65.482,66.525 65.253,66.861 C 65.253,66.861 64.835,67.471 64.835,67.471 C 64.835,67.471 64.847,84.932 64.847,84.932 C 64.847,84.932 64.858,102.393 65.563,103.137 C 65.563,103.137 76.176,103.130 76.176,103.130 C 85.377,103.125 86.864,103.090 87.356,102.866M 142.156,97.749 C 142.941,97.533 144,97.305 144.508,97.244 C 145.016,97.184 145.738,97.003 146.110,96.842 C 146.483,96.682 147.176,96.458 147.651,96.345 C 148.125,96.232 148.642,95.999 148.799,95.826 C 148.957,95.654 149.360,95.424 149.696,95.316 C 150.031,95.207 150.519,94.942 150.780,94.726 C 151.042,94.510 151.318,94.333 151.395,94.333 C 151.471,94.333 151.851,94.071 152.238,93.750 C 152.625,93.429 153.029,93.167 153.136,93.167 C 153.418,93.167 158.119,88.393 158.119,88.106 C 158.119,87.974 158.379,87.556 158.697,87.179 C 159.015,86.801 159.326,86.325 159.388,86.121 C 159.451,85.917 159.638,85.600 159.804,85.417 C 159.970,85.233 160.195,84.748 160.304,84.339 C 160.414,83.930 160.641,83.421 160.810,83.209 C 160.978,82.997 161.169,82.507 161.234,82.120 C 161.299,81.733 161.522,81.079 161.730,80.667 C 161.944,80.242 162.160,79.410 162.228,78.750 C 162.293,78.108 162.495,76.833 162.675,75.917 C 163.307,72.704 163.273,71.015 162.510,67.667 C 162.416,67.254 162.262,66.438 162.167,65.853 C 162.073,65.268 161.884,64.667 161.747,64.517 C 161.610,64.367 161.418,63.746 161.320,63.138 C 161.222,62.529 160.916,61.604 160.639,61.082 C 160.362,60.560 160.135,60 160.135,59.837 C 160.135,59.674 160.026,59.451 159.892,59.341 C 159.758,59.230 159.517,58.790 159.356,58.362 C 159.195,57.934 158.922,57.396 158.749,57.167 C 158.041,56.225 157.602,55.547 157.293,54.917 C 157.113,54.550 156.609,53.875 156.173,53.417 C 155.736,52.958 155.032,52.208 154.608,51.750 C 153.721,50.791 151.291,48.667 151.081,48.667 C 151.003,48.667 150.667,48.460 150.334,48.208 C 149.449,47.540 148.350,46.891 147.869,46.753 C 147.638,46.687 147.181,46.454 146.854,46.235 C 146.527,46.016 145.884,45.788 145.426,45.729 C 144.967,45.670 144.176,45.427 143.668,45.188 C 143.668,45.188 142.744,44.754 142.744,44.754 C 142.744,44.754 137.703,44.764 137.703,44.764 C 137.703,44.764 132.662,44.773 132.662,44.773 C 132.662,44.773 131.738,45.201 131.738,45.201 C 131.229,45.437 130.377,45.676 129.843,45.733 C 129.309,45.790 128.597,45.984 128.261,46.163 C 127.924,46.342 127.226,46.573 126.710,46.678 C 126.195,46.782 125.656,46.970 125.514,47.094 C 125.372,47.219 124.919,47.478 124.506,47.670 C 123.551,48.115 122.114,49.085 120.742,50.208 C 120.435,50.460 120.113,50.667 120.027,50.667 C 119.823,50.667 116.838,53.760 116.229,54.601 C 115.971,54.958 115.536,55.542 115.263,55.898 C 114.990,56.254 114.766,56.642 114.766,56.760 C 114.766,56.878 114.588,57.186 114.371,57.445 C 114.153,57.705 113.879,58.217 113.762,58.583 C 113.645,58.950 113.405,59.407 113.229,59.599 C 113.053,59.791 112.838,60.382 112.751,60.913 C 112.663,61.444 112.440,62.168 112.254,62.521 C 112.069,62.875 111.837,63.671 111.740,64.290 C 111.643,64.910 111.433,65.792 111.274,66.250 C 111.030,66.954 110.986,67.755 110.986,71.417 C 110.986,75.492 111.008,75.811 111.364,76.786 C 111.572,77.356 111.742,78.072 111.742,78.376 C 111.742,79.379 112.722,82.809 113.355,84.022 C 113.577,84.447 113.758,84.936 113.758,85.109 C 113.758,85.281 113.940,85.688 114.163,86.013 C 114.385,86.338 114.688,86.862 114.836,87.177 C 114.984,87.492 115.291,88.013 115.519,88.333 C 115.746,88.654 116.105,89.176 116.315,89.494 C 116.727,90.114 119.796,93.222 120.484,93.715 C 121.613,94.524 122.125,94.849 122.664,95.095 C 122.987,95.244 123.630,95.545 124.092,95.764 C 124.554,95.984 125.159,96.212 125.436,96.270 C 125.714,96.329 126.319,96.545 126.781,96.751 C 127.243,96.956 128.292,97.213 129.112,97.321 C 129.932,97.429 130.953,97.640 131.380,97.791 C 132.419,98.155 134.593,98.294 137.955,98.212 C 140.208,98.156 140.995,98.070 142.156,97.749" stroke="#262627" fill="#262627" stroke-width="1" />
  </g><g id="face"><path id="46" d="M 140.984,87.656 C 140.468,87.442 140.313,87.208 140.310,86.640 C 140.307,86.131 141.078,85.395 141.791,85.227 C 142.038,85.169 142.379,85.001 142.549,84.855 C 142.719,84.707 143.184,84.399 143.582,84.169 C 145.060,83.313 145.651,82.838 146.456,81.855 C 147.846,80.158 148.066,79.711 148.232,78.250 C 148.315,77.517 148.533,76.633 148.714,76.286 C 148.974,75.792 149.045,75.323 149.045,74.107 C 149.045,72.712 149.083,72.524 149.423,72.220 C 150.032,71.677 150.184,71.639 150.705,71.906 C 151.739,72.437 151.782,72.552 151.650,74.474 C 151.573,75.583 151.413,76.492 151.211,76.959 C 151.036,77.364 150.844,78.107 150.785,78.611 C 150.723,79.132 150.513,79.763 150.298,80.078 C 150.090,80.382 149.868,80.866 149.804,81.153 C 149.741,81.440 149.511,81.884 149.294,82.140 C 149.077,82.396 148.847,82.810 148.784,83.060 C 148.615,83.728 146.216,85.803 144.597,86.682 C 144.231,86.881 143.739,87.181 143.505,87.349 C 142.989,87.719 141.555,87.893 140.984,87.656" stroke="#262627" fill="#262627" stroke-width="1" />
  <path id="46" d="M 81.669,96.803 C 81.440,96.719 81.204,96.571 81.144,96.474 C 81.084,96.378 81.073,94.812 81.121,92.995 C 81.204,89.855 81.190,89.662 80.855,89.098 C 80.661,88.772 80.416,88.188 80.311,87.802 C 80.206,87.415 79.957,86.886 79.758,86.626 C 78.825,85.411 78.383,84.967 77.901,84.761 C 77.058,84.401 76.119,83.435 76.119,82.928 C 76.119,82.351 76.813,81.667 77.397,81.667 C 78.573,81.667 81.085,83.553 81.825,84.992 C 81.992,85.317 82.289,85.880 82.484,86.243 C 82.730,86.699 82.840,87.205 82.840,87.874 C 82.840,88.541 82.975,89.162 83.273,89.864 C 83.675,90.811 83.702,91.034 83.650,92.984 C 83.600,94.825 83.542,95.184 83.175,95.904 C 82.719,96.797 82.312,97.041 81.669,96.803" stroke="#262627" fill="#262627" stroke-width="1" />
  <path id="46" d="M 128.367,78.958 C 128.063,78.474 128.037,78.232 128.122,76.667 C 128.258,74.151 128.528,71.880 128.807,70.902 C 129.118,69.813 129.115,69.095 128.798,68.834 C 128.537,68.619 126.384,68.713 125.126,68.994 C 124.381,69.161 122.674,68.829 122.053,68.396 C 121.806,68.224 121.339,67.933 121.014,67.750 C 120.364,67.383 119.890,66.370 120.057,65.703 C 120.275,64.835 121.742,64.813 122.717,65.662 C 123.045,65.948 123.708,66.257 124.361,66.430 C 125.402,66.705 125.493,66.705 126.228,66.426 C 126.804,66.208 127.225,65.861 127.875,65.066 C 128.767,63.974 129.519,63.333 129.906,63.333 C 130.138,63.333 131.404,64.138 131.609,64.416 C 131.931,64.851 131.625,68.720 131.163,70.071 C 131.020,70.486 130.867,71.846 130.799,73.292 C 130.799,73.292 130.681,75.794 130.681,75.794 C 130.681,75.794 131.130,76.086 131.130,76.086 C 131.546,76.356 131.648,76.359 132.540,76.120 C 133.069,75.978 133.918,75.708 134.426,75.520 C 134.935,75.332 135.653,75.175 136.023,75.171 C 136.392,75.168 136.942,75.016 137.245,74.833 C 138.025,74.361 138.660,74.408 139.281,74.983 C 140.167,75.804 139.909,76.515 138.586,76.899 C 138.100,77.040 137.403,77.308 137.037,77.494 C 136.671,77.681 136.066,77.833 135.692,77.833 C 135.291,77.833 134.691,78.002 134.233,78.245 C 133.673,78.540 133.058,78.688 132.050,78.768 C 131.101,78.844 130.501,78.981 130.200,79.190 C 129.482,79.689 128.770,79.599 128.367,78.958" stroke="#262627" fill="#262627" stroke-width="1" />
  <path id="46" d="M 141.437,64.829 C 141.087,64.741 140.394,64.371 139.897,64.007 C 138.857,63.245 138.619,62.655 139.030,61.866 C 139.472,61.018 140.196,60.936 141.016,61.642 C 141.319,61.904 142.063,62.280 142.668,62.478 C 142.668,62.478 143.769,62.838 143.769,62.838 C 143.769,62.838 144.769,62.498 144.769,62.498 C 145.600,62.215 146.014,61.915 147.222,60.723 C 148.454,59.509 148.739,59.304 149.084,59.391 C 149.825,59.575 150.108,60.756 149.631,61.670 C 148.873,63.126 148.002,63.996 146.693,64.606 C 145.997,64.931 142.445,65.081 141.437,64.829" stroke="#262627" fill="#262627" stroke-width="1" />
</g></svg>