<svg width="56" height="56" viewBox="0 0 56 56" fill="none" xmlns="http://www.w3.org/2000/svg">
<path fill-rule="evenodd" clip-rule="evenodd" d="M13.417 29.1667V26.8333C13.417 24.577 11.59 22.75 9.33366 22.75H7.00033C4.74399 22.75 2.91699 24.577 2.91699 26.8333V29.1667C2.91699 31.423 4.74399 33.25 7.00033 33.25H9.33366C11.59 33.25 13.417 31.423 13.417 29.1667Z" fill="black"/>
<path fill-rule="evenodd" clip-rule="evenodd" d="M39.0837 35.0001C39.0837 32.7461 37.2543 30.9167 35.0003 30.9167H21.0003C18.7463 30.9167 16.917 32.7461 16.917 35.0001V49.0001C16.917 51.2541 18.7463 53.0834 21.0003 53.0834H35.0003C37.2543 53.0834 39.0837 51.2541 39.0837 49.0001V35.0001Z" fill="black"/>
<path fill-rule="evenodd" clip-rule="evenodd" d="M23.917 25.0834V18.6667C23.917 15.1224 26.7893 12.2501 30.3337 12.2501H39.0837V7.00008C39.0837 4.74608 37.2543 2.91675 35.0003 2.91675H21.0003C18.7463 2.91675 16.917 4.74608 16.917 7.00008V21.0001C16.917 23.2541 18.7463 25.0834 21.0003 25.0834H23.917Z" fill="black"/>
<path fill-rule="evenodd" clip-rule="evenodd" d="M26.25 28.5835H35C38.5443 28.5835 41.4167 31.4558 41.4167 35.0002V41.4168H49C51.2563 41.4168 53.0833 39.5898 53.0833 37.3335V18.6668C53.0833 16.4105 51.2563 14.5835 49 14.5835H30.3333C28.077 14.5835 26.25 16.4105 26.25 18.6668V28.5835Z" fill="black"/>
</svg>
